PathFileType	4	(X/Y/Z)	C:\Users\Biomechanik\SynologyDrive\AlexP\Athlete_03\Athlete_3_25_03_31\Deadlift_bar_01\marker_experimental.trc
DataRate	CameraRate	NumFrames	NumMarkers	Units	OrigDataRate	OrigDataStartFrame	OrigNumFrames
200.000000	200.000000	4	55	mm	200.000000	0	1464
Frame#	Time	BL			BR			GLAB			RFHD			LFHD			C7			T6			SPINMOL			SPINM2			SPINM3			T12			BELTOL			BELT2			BELT3			SACROL			SACR2			SACR3			LTHOL			LTH2			LTH3			LSHAOL			LSHA2			LSHA3			LHEE			LTOE			LM5			RTHOL			RTH2			RTH3			RSHAOL			RSHA2			RSHA3			RHEE			RTOE			RM5			STRN			XIPH			LACR			LUAOL			LUA2			LUA3			LLAOL			LLA2			LLA3			LWRR			LWRU			RACR			RUAOL			RUA2			RUA3			RLAOL			RLA2			RLA3			RWRR			RWRU			
		X1	Y1	Z1	X2	Y2	Z2	X3	Y3	Z3	X4	Y4	Z4	X5	Y5	Z5	X6	Y6	Z6	X7	Y7	Z7	X8	Y8	Z8	X9	Y9	Z9	X10	Y10	Z10	X11	Y11	Z11	X12	Y12	Z12	X13	Y13	Z13	X14	Y14	Z14	X15	Y15	Z15	X16	Y16	Z16	X17	Y17	Z17	X18	Y18	Z18	X19	Y19	Z19	X20	Y20	Z20	X21	Y21	Z21	X22	Y22	Z22	X23	Y23	Z23	X24	Y24	Z24	X25	Y25	Z25	X26	Y26	Z26	X27	Y27	Z27	X28	Y28	Z28	X29	Y29	Z29	X30	Y30	Z30	X31	Y31	Z31	X32	Y32	Z32	X33	Y33	Z33	X34	Y34	Z34	X35	Y35	Z35	X36	Y36	Z36	X37	Y37	Z37	X38	Y38	Z38	X39	Y39	Z39	X40	Y40	Z40	X41	Y41	Z41	X42	Y42	Z42	X43	Y43	Z43	X44	Y44	Z44	X45	Y45	Z45	X46	Y46	Z46	X47	Y47	Z47	X48	Y48	Z48	X49	Y49	Z49	X50	Y50	Z50	X51	Y51	Z51	X52	Y52	Z52	X53	Y53	Z53	X54	Y54	Z54	X55	Y55	Z55	

1	0	330.3186950683594	726.5138549804689	-2229.6669921875	297.6097412109375	704.7937622070312	-207.6971130371093	354.1542053222656	1550.878540039062	-1200.908447265625	318.9935913085938	1591.941650390625	-1136.930419921875	322.7315063476562	1589.780883789062	-1273.692504882812	93.19377136230469	1442.18310546875	-1210.055786132812	48.81823348999023	1261.41796875	-1221.013671875	47.65241622924805	1223.384643554688	-1242.493896484375	41.21862411499023	1213.5595703125	-1193.257080078125	59.00790023803711	1159.790161132812	-1228.295654296875	77.59519958496094	1105.719848632812	-1226.694213867188	59.85456085205078	1079.703857421875	-1242.512939453125	59.94673538208008	1076.422973632812	-1192.570556640625	57.60258102416992	1016.348449707031	-1221.2763671875	60.65638732910156	961.7069091796876	-1244.503051757812	62.0766716003418	958.4922485351564	-1192.657470703125	42.00318145751953	902.1736450195314	-1221.787475585938	157.7751159667969	682.8548583984376	-1404.426513671875	109.618408203125	627.1483154296876	-1373.494384765625	156.3615570068359	622.5517578125001	-1391.097900390625	138.7745513916016	326.8545532226564	-1405.156982421875	91.21379852294922	263.875701904297	-1393.306274414062	140.3450622558594	265.0723266601564	-1402.611328125	76.684814453125	68.27760314941415	-1318.422485351562	293.5094604492188	48.74765014648445	-1332.859252929688	241.8538818359375	29.30806350708017	-1431.841918945312	138.1000823974609	696.0581054687501	-1035.087280273438	193.0074462890625	640.2344360351564	-1018.559631347656	148.0329895019531	635.4451904296876	-1039.682373046875	116.1854934692383	344.9288330078126	-1023.798095703125	149.9797515869141	274.4872131347657	-1015.494750976562	104.7887649536133	283.8884582519532	-1033.8388671875	79.35419464111328	61.45841598510749	-1119.191650390625	291.6575317382812	48.49869537353522	-1096.242431640625	234.2910766601562	38.62296295166022	-999.1547241210938	266.7360229492188	1349.7626953125	-1212.686767578125	297.0479736328125	1211.940063476562	-1213.600952148438	160.0899505615234	1406.24755859375	-1382.768676757812	180.258544921875	1244.43359375	-1478.236572265625	180.556640625	1181.321899414062	-1496.939208984375	223.1811065673828	1195.046997070312	-1471.2646484375	265.288330078125	986.6981811523439	-1506.817016601562	233.3304443359375	914.4647827148439	-1510.816040039062	281.3656921386719	926.9775390625001	-1504.143188476562	325.4749755859375	830.9978027343751	-1497.098022460938	303.5774536132812	820.7437744140626	-1421.28857421875	168.1985626220703	1398.68310546875	-1046.777709960938	174.4188842773438	1240.701049804688	-958.6209106445311	210.1795654296875	1184.169677734375	-962.2359619140624	163.2145690917969	1178.284545898438	-940.4132690429686	241.2782440185547	965.5368041992189	-930.8002929687499	306.8013916015625	919.9589233398438	-926.564453125	259.1100158691406	905.2354125976564	-932.0885009765625	316.1455383300781	830.5295410156251	-933.4064331054688	291.0697326660156	804.3017578125001	-1007.647399902344	
2	0.005	330.3021545410156	726.5259399414064	-2229.662353515625	297.60546875	704.790771484375	-207.6982116699218	354.1249694824219	1550.888061523438	-1200.890502929688	318.9589538574219	1591.942749023438	-1136.910888671875	322.6902465820312	1589.788940429688	-1273.635864257812	93.16743469238281	1442.180419921875	-1210.055908203125	48.79504776000977	1261.41455078125	-1221.017211914062	47.63053512573242	1223.378784179688	-1242.499267578125	41.19688034057617	1213.551025390625	-1193.263916015625	58.98874282836914	1159.787231445312	-1228.298461914062	77.57250213623047	1105.718627929688	-1226.694580078125	59.83784484863281	1079.663818359375	-1242.545654296875	59.92827606201172	1076.419677734375	-1192.573608398438	57.57959747314453	1016.343383789063	-1221.283081054688	60.65788269042969	961.7051391601564	-1244.496948242188	62.03721237182617	958.4678955078126	-1192.682495117188	41.99208831787109	902.1703491210939	-1221.785522460938	157.7784729003906	682.8482666015626	-1404.408447265625	109.6122817993164	627.1455688476564	-1373.48583984375	156.3976135253906	622.5248413085939	-1391.067749023438	138.7723388671875	326.8551330566407	-1405.157592773438	91.21311187744141	263.8753967285157	-1393.306396484375	140.3447418212891	265.0722045898439	-1402.610229492188	76.68354034423828	68.27730560302743	-1318.424438476562	293.5063171386719	48.75041580200203	-1332.859130859375	241.8602752685547	29.28279876708993	-1431.823974609375	138.0860290527344	696.0570068359376	-1035.0888671875	192.9954833984375	640.2350463867189	-1018.558288574219	148.0185089111328	635.4444580078126	-1039.681762695312	116.1793365478516	344.9266357421876	-1023.800048828125	149.9740142822266	274.4835815429688	-1015.499816894531	104.7841186523438	283.8873291015626	-1033.84033203125	79.35626983642578	61.46262359619148	-1119.184936523438	291.6563720703125	48.50200271606452	-1096.23828125	234.2910461425781	38.62532424926764	-999.1489868164062	266.7148132324219	1349.76708984375	-1212.681884765625	297.0242919921875	1211.943725585938	-1213.59814453125	160.0717163085938	1406.254028320312	-1382.767456054688	180.2476806640625	1244.436279296875	-1478.226806640625	180.5595245361328	1181.3291015625	-1497.002197265625	223.16552734375	1195.057983398438	-1471.2587890625	265.2417907714844	986.7182006835939	-1506.838500976562	233.3257751464844	914.4622192382814	-1510.818725585938	281.3482055664062	926.9844360351564	-1504.145141601562	325.4649963378906	831.0110473632814	-1497.096923828125	303.5649108886719	820.7476196289064	-1421.284790039062	168.1801452636719	1398.67822265625	-1046.77490234375	174.4050140380859	1240.685791015625	-958.6254272460936	210.1614532470703	1184.172119140625	-962.2286376953124	163.19287109375	1178.2841796875	-940.4069824218749	241.2629241943359	965.5391235351564	-930.7980346679686	306.7846374511719	919.9675903320312	-926.5529174804688	259.0949096679688	905.2373046875001	-932.08837890625	316.1332092285156	830.5324707031251	-933.4030151367188	291.0622253417969	804.3038330078126	-1007.6435546875	
3	0.01	330.283203125	726.5402221679689	-2229.657470703125	297.6002807617188	704.7866821289062	-207.6999206542968	354.0909423828125	1550.8984375	-1200.869995117188	318.9190979003906	1591.943725585938	-1136.889282226562	322.6446533203125	1589.797485351562	-1273.574462890625	93.13694000244141	1442.177124023438	-1210.055908203125	48.76809310913086	1261.41064453125	-1221.021118164062	47.60442733764648	1223.371948242188	-1242.505493164062	41.17132568359375	1213.541137695312	-1193.272094726562	58.96635818481445	1159.783813476562	-1228.3017578125	77.54623413085938	1105.717163085938	-1226.694946289062	59.81806182861328	1079.624633789062	-1242.577880859375	59.90686416625977	1076.415649414062	-1192.577270507812	57.55315780639648	1016.337219238281	-1221.290771484375	60.65994644165039	961.7031860351564	-1244.490112304688	61.99399566650391	958.4448242187501	-1192.706420898438	41.97901153564453	902.1666259765626	-1221.78369140625	157.7799224853516	682.8412475585939	-1404.391967773438	109.6061172485352	627.1434326171876	-1373.477172851562	156.4299163818359	622.5003051757814	-1391.03955078125	138.7695770263672	326.8562011718751	-1405.158203125	91.21222686767578	263.8751220703126	-1393.306640625	140.3442077636719	265.0722656250001	-1402.609008789062	76.68205261230469	68.27694702148446	-1318.426635742188	293.5026245117188	48.7536926269532	-1332.859008789062	241.866455078125	29.25821113586435	-1431.8056640625	138.0699462890625	696.0558471679689	-1035.090942382812	192.9817962646484	640.2357177734376	-1018.556823730469	148.0016479492188	635.4435424804689	-1039.681030273438	116.1723098754883	344.9240112304688	-1023.802185058594	149.9675140380859	274.4791564941407	-1015.506103515625	104.7787933349609	283.8860778808594	-1033.841918945312	79.35746765136719	61.46605300903327	-1119.178955078125	291.6550903320312	48.50595855712897	-1096.233520507812	234.2910308837891	38.62823867797858	-999.14208984375	266.6903686523438	1349.7724609375	-1212.67626953125	296.9973449707031	1211.948364257812	-1213.594970703125	160.05029296875	1406.261474609375	-1382.765869140625	180.2351226806641	1244.439453125	-1478.215942382812	180.5628967285156	1181.337646484375	-1497.073486328125	223.1446533203125	1195.07080078125	-1471.252197265625	265.1937561035156	986.7383422851564	-1506.860229492188	233.3204345703125	914.4584350585939	-1510.821533203125	281.3279113769531	926.9927368164064	-1504.147705078125	325.4535827636719	831.0261230468751	-1497.095581054688	303.5504150390625	820.7520141601564	-1421.280395507812	168.1586303710938	1398.671997070312	-1046.77197265625	174.3880920410156	1240.6689453125	-958.6296997070311	210.1414947509766	1184.176391601562	-962.2176513671874	163.1681060791016	1178.283935546875	-940.3987426757811	241.2454833984375	965.5416259765626	-930.7952880859374	306.7664184570312	919.9776611328125	-926.5411987304688	259.0777893066406	905.2393188476564	-932.0880737304688	316.1191711425781	830.5360107421876	-933.39892578125	291.0538330078125	804.3060913085939	-1007.639282226562	
4	0.015	330.2619934082031	726.5567016601564	-2229.65283203125	297.59423828125	704.7814331054688	-207.7023162841796	354.0523071289062	1550.909301757812	-1200.847290039062	318.8743591308594	1591.94482421875	-1136.866088867188	322.5957641601562	1589.806274414062	-1273.510131835938	93.10243225097656	1442.17333984375	-1210.0556640625	48.73749542236328	1261.40625	-1221.025268554688	47.57404708862305	1223.363891601562	-1242.512573242188	41.14199066162109	1213.530029296875	-1193.281616210938	58.94086074829102	1159.779663085938	-1228.3056640625	77.51657104492188	1105.715454101562	-1226.695556640625	59.79566192626953	1079.587768554688	-1242.608276367188	59.88264846801758	1076.411010742188	-1192.581787109375	57.52350234985352	1016.329895019531	-1221.299560546875	60.66265106201172	961.7011718750001	-1244.482666015625	61.94904327392578	958.4237670898439	-1192.728271484375	41.96398162841797	902.1625366210939	-1221.78173828125	157.7787322998047	682.8340454101564	-1404.378662109375	109.6002349853516	627.1420898437501	-1373.468505859375	156.4567413330078	622.4794311523439	-1391.014770507812	138.7662353515625	326.8577575683595	-1405.158935546875	91.21110534667969	263.8749084472657	-1393.306884765625	140.3434448242188	265.0725708007814	-1402.607788085938	76.68035888671875	68.27653503417977	-1318.429321289062	293.4984130859375	48.75746536254891	-1332.858764648438	241.8722229003906	29.23507118225107	-1431.78759765625	138.0519866943359	696.0545043945314	-1035.093139648438	192.9665679931641	640.2363891601564	-1018.555114746094	147.9824981689453	635.4423217773439	-1039.680053710938	116.1645202636719	344.9209594726563	-1023.804626464844	149.9603729248047	274.4739074707032	-1015.513732910156	104.7728805541992	283.8847351074219	-1033.843505859375	79.35778045654297	61.46871948242195	-1119.173706054688	291.6536560058594	48.51056289672858	-1096.227905273438	234.2910461425781	38.6317100524903	-999.1339111328125	266.6629028320312	1349.779174804688	-1212.670043945312	296.9673767089844	1211.953979492188	-1213.591430664062	160.0257415771484	1406.269897460938	-1382.764038085938	180.2209320068359	1244.443481445312	-1478.2041015625	180.5664672851562	1181.347412109375	-1497.150756835938	223.1191864013672	1195.08544921875	-1471.245239257812	265.1448669433594	986.7581787109376	-1506.881958007812	233.3144683837891	914.4531860351564	-1510.824462890625	281.3049621582031	927.0023193359376	-1504.150634765625	325.4408264160156	831.0427246093751	-1497.09375	303.5340270996094	820.7569580078126	-1421.275390625	168.1340789794922	1398.66455078125	-1046.769287109375	174.3679656982422	1240.651123046875	-958.6333618164061	210.1200561523438	1184.182739257812	-962.2026977539061	163.1406097412109	1178.28369140625	-940.3883666992186	241.2260894775391	965.5443115234376	-930.7919921874999	306.7467651367188	919.9888305664062	-926.5291748046875	259.0589294433594	905.2414550781251	-932.0874633789062	316.1036376953125	830.5402221679689	-933.394287109375	291.044677734375	804.3084716796876	-1007.634704589844	
